<?xml version="1.0" encoding="UTF-8"?>
<svg width="32px" height="32px" viewBox="0 0 32 32" xmlns="http://www.w3.org/2000/svg" xmlns:xlink="http://www.w3.org/1999/xlink" version="1.1">
 <style>
 path {
  fill: #191717;
 }
 @media (prefers-color-scheme: dark) {
  path {
   fill: #eae9e9;
  }
 }
 </style>
 <g>
  <path d="M17.6 29.63 C16.13 29.63 14.835 29.373 13.715 28.86 12.595 28.347 11.732 27.629 11.125 26.708 10.518 25.786 10.215 24.718 10.215 23.505 10.215 22.478 10.431 21.545 10.863 20.705 11.294 19.865 11.877 19.2 12.613 18.71 13.348 18.22 14.158 17.975 15.045 17.975 15.862 17.975 16.55 18.179 17.11 18.587 17.67 18.996 18.02 19.562 18.16 20.285 16.947 20.285 15.978 20.606 15.255 21.248 14.532 21.889 14.17 22.758 14.17 23.855 14.17 24.858 14.473 25.663 15.08 26.27 15.687 26.877 16.492 27.18 17.495 27.18 18.732 27.18 19.752 26.766 20.558 25.938 21.363 25.109 21.765 24.065 21.765 22.805 21.765 21.708 21.462 20.67 20.855 19.69 20.248 18.71 19.338 17.52 18.125 16.12 16.865 14.673 15.914 13.431 15.272 12.392 14.631 11.354 14.31 10.217 14.31 8.98 14.31 7.767 14.648 6.676 15.325 5.708 16.002 4.739 16.935 3.975 18.125 3.415 19.315 2.855 20.657 2.575 22.15 2.575 24.04 2.575 25.551 3.018 26.683 3.905 27.814 4.792 28.38 5.982 28.38 7.475 28.38 8.455 28.135 9.248 27.645 9.855 27.155 10.462 26.513 10.765 25.72 10.765 24.833 10.765 24.122 10.403 23.585 9.68 24.028 9.353 24.378 8.922 24.635 8.385 24.892 7.848 25.02 7.288 25.02 6.705 25.02 5.958 24.798 5.363 24.355 4.92 23.912 4.477 23.305 4.255 22.535 4.255 21.602 4.255 20.838 4.587 20.243 5.253 19.647 5.918 19.35 6.763 19.35 7.79 19.35 8.723 19.618 9.592 20.155 10.397 20.692 11.203 21.532 12.235 22.675 13.495 23.608 14.498 24.361 15.362 24.933 16.085 25.504 16.808 25.994 17.642 26.403 18.587 26.811 19.533 27.015 20.553 27.015 21.65 27.015 23.143 26.601 24.497 25.772 25.71 24.944 26.923 23.813 27.88 22.378 28.58 20.942 29.28 19.35 29.63 17.6 29.63 Z" fill-opacity="1" stroke="none"/>
  <path d="M8.278 12.64 C7.507 12.64 6.854 12.372 6.318 11.835 5.781 11.298 5.512 10.645 5.512 9.875 5.512 9.105 5.781 8.446 6.318 7.897 6.854 7.349 7.507 7.075 8.278 7.075 9.048 7.075 9.707 7.349 10.255 7.897 10.803 8.446 11.078 9.105 11.078 9.875 11.078 10.645 10.803 11.298 10.255 11.835 9.707 12.372 9.048 12.64 8.278 12.64 Z M6.528 21.04 C5.757 21.04 5.104 20.772 4.568 20.235 4.031 19.698 3.762 19.045 3.762 18.275 3.762 17.505 4.031 16.846 4.568 16.298 5.104 15.749 5.757 15.475 6.528 15.475 7.298 15.475 7.957 15.749 8.505 16.298 9.053 16.846 9.328 17.505 9.328 18.275 9.328 19.045 9.053 19.698 8.505 20.235 7.957 20.772 7.298 21.04 6.528 21.04 Z" fill-opacity="1" stroke="none"/>
 </g>
</svg>
