<?xml version="1.0" encoding="UTF-8"?>
<svg width="36px" height="36px" viewBox="0 0 36 36" xmlns="http://www.w3.org/2000/svg" xmlns:xlink="http://www.w3.org/1999/xlink" version="1.1" xml:space="preserve">
 <!-- Generated by Pixelmator Pro 2.0.8 -->
 <g fill-rule="evenodd" clip-rule="evenodd" fill="#191717">
  <path d="M20.6,31.63C19.13,31.63,17.835,31.373,16.715,30.86,15.595,30.347,14.732,29.629,14.125,28.708,13.518,27.786,13.215,26.718,13.215,25.505,13.215,24.478,13.431,23.545,13.863,22.705,14.294,21.865,14.877,21.2,15.613,20.71,16.348,20.22,17.158,19.975,18.045,19.975,18.862,19.975,19.55,20.179,20.11,20.587,20.67,20.996,21.02,21.562,21.16,22.285,19.947,22.285,18.978,22.606,18.255,23.248,17.532,23.889,17.17,24.758,17.17,25.855,17.17,26.858,17.473,27.663,18.08,28.27,18.687,28.877,19.492,29.18,20.495,29.18,21.732,29.18,22.752,28.766,23.558,27.938,24.363,27.109,24.765,26.065,24.765,24.805,24.765,23.708,24.462,22.67,23.855,21.69,23.248,20.71,22.338,19.52,21.125,18.12,19.865,16.673,18.914,15.431,18.272,14.392,17.631,13.354,17.31,12.217,17.31,10.98,17.31,9.767,17.648,8.676,18.325,7.708,19.002,6.739,19.935,5.975,21.125,5.415,22.315,4.855,23.657,4.575,25.15,4.575,27.04,4.575,28.551,5.018,29.683,5.905,30.814,6.792,31.38,7.982,31.38,9.475,31.38,10.455,31.135,11.248,30.645,11.855,30.155,12.462,29.513,12.765,28.72,12.765,27.833,12.765,27.122,12.403,26.585,11.68,27.028,11.353,27.378,10.922,27.635,10.385,27.892,9.848,28.02,9.288,28.02,8.705,28.02,7.958,27.798,7.363,27.355,6.92,26.912,6.477,26.305,6.255,25.535,6.255,24.602,6.255,23.838,6.587,23.243,7.253,22.647,7.918,22.35,8.763,22.35,9.79,22.35,10.723,22.618,11.592,23.155,12.397,23.692,13.203,24.532,14.235,25.675,15.495,26.608,16.498,27.361,17.362,27.933,18.085,28.504,18.808,28.994,19.642,29.403,20.587,29.811,21.533,30.015,22.553,30.015,23.65,30.015,25.143,29.601,26.497,28.772,27.71,27.944,28.923,26.813,29.88,25.378,30.58,23.942,31.28,22.35,31.63,20.6,31.63z" />
  <path d="M11.278,14.64C10.507,14.64,9.854,14.372,9.318,13.835,8.781,13.298,8.512,12.645,8.512,11.875,8.512,11.105,8.781,10.446,9.318,9.897,9.854,9.349,10.507,9.075,11.278,9.075,12.048,9.075,12.707,9.349,13.255,9.897,13.803,10.446,14.078,11.105,14.078,11.875,14.078,12.645,13.803,13.298,13.255,13.835,12.707,14.372,12.048,14.64,11.278,14.64ZM9.528,23.04C8.757,23.04,8.104,22.772,7.568,22.235,7.031,21.698,6.762,21.045,6.762,20.275,6.762,19.505,7.031,18.846,7.568,18.298,8.104,17.749,8.757,17.475,9.528,17.475,10.298,17.475,10.957,17.749,11.505,18.298,12.053,18.846,12.328,19.505,12.328,20.275,12.328,21.045,12.053,21.698,11.505,22.235,10.957,22.772,10.298,23.04,9.528,23.04z" />
 </g>
</svg>
