<?xml version="1.0" encoding="UTF-8"?>
<!-- Generated by Pixelmator Pro 3.6.9 -->
<svg width="24" height="24" viewBox="0 0 24 24" xmlns="http://www.w3.org/2000/svg">
    <path id="Trac" fill="none" stroke="#000000" d="M 9 5 L 7 5 C 5.895431 5 5 5.895432 5 7 L 5 19 C 5 20.10457 5.895431 21 7 21 L 17 21 C 18.10457 21 19 20.10457 19 19 L 19 7 C 19 5.895432 18.10457 5 17 5 L 15 5 M 9 5 C 9 6.104568 9.895431 7 11 7 L 13 7 C 14.104569 7 15 6.104568 15 5 M 9 5 C 9 3.895432 9.895431 3 11 3 L 13 3 C 14.104569 3 15 3.895432 15 5 M 9 14 L 11 16 L 15 12"/>
    <path id="path1" fill="none" stroke="#000000" d="M 9 5 L 7 5 C 5.895431 5 5 5.895432 5 7 L 5 19 C 5 20.10457 5.895431 21 7 21 L 17 21 C 18.10457 21 19 20.10457 19 19 L 19 7 C 19 5.895432 18.10457 5 17 5 L 15 5 M 9 5 C 9 6.104568 9.895431 7 11 7 L 13 7 C 14.104569 7 15 6.104568 15 5 M 9 5 C 9 3.895432 9.895431 3 11 3 L 13 3 C 14.104569 3 15 3.895432 15 5"/>
</svg>
