<?xml version="1.0" encoding="UTF-8"?>
<svg width="453px" height="121px" viewBox="0 0 453 121" xmlns="http://www.w3.org/2000/svg" xmlns:xlink="http://www.w3.org/1999/xlink" version="1.1">
 <!-- Generated by Pixelmator Pro 2.0.8 -->
 <g id="Logo">
  <g id="Label">
   <path id="Scalastic" d="M134.905 97.588 C130.07 97.588 126.312 96.33 123.633 93.815 120.955 91.299 119.616 87.364 119.616 82.006 119.616 77.498 120.515 72.532 122.311 67.11 124.108 61.687 126.982 57 130.934 53.047 134.887 49.095 139.901 47.118 145.977 47.118 149.897 47.118 152.69 47.968 154.356 49.666 156.022 51.365 156.856 53.52 156.856 56.133 156.856 58.42 156.365 60.185 155.385 61.426 154.405 62.667 153.165 63.287 151.663 63.287 150.552 63.287 149.407 62.896 148.231 62.112 149.015 59.956 149.409 58.029 149.409 56.33 149.409 55.089 149.179 54.11 148.721 53.391 148.264 52.672 147.579 52.313 146.665 52.313 144.705 52.313 142.744 53.912 140.784 57.114 138.824 60.315 137.222 64.202 135.981 68.776 134.74 73.349 134.12 77.465 134.12 81.123 134.12 84.325 134.675 86.498 135.786 87.641 136.896 88.784 138.694 89.356 141.176 89.356 144.704 89.356 147.726 88.54 150.241 86.907 152.401 85.504 154.743 83.474 157.264 80.819 157.387 76.282 158.343 71.533 160.139 66.571 162.067 61.246 164.94 56.739 168.762 53.047 172.584 49.356 177.142 47.51 182.434 47.51 185.113 47.51 187.106 47.967 188.413 48.881 189.719 49.796 190.372 51.005 190.372 52.508 L190.372 53.194 191.45 48 205.561 48 198.507 81.321 C198.245 82.301 198.114 83.345 198.114 84.455 198.114 87.265 199.453 88.67 202.132 88.67 203.961 88.67 205.546 87.82 206.885 86.121 208.225 84.423 209.285 82.201 210.069 79.457 L220.555 30.36 235.059 28.401 223.79 81.321 C223.528 82.301 223.397 83.345 223.397 84.455 223.397 85.762 223.708 86.693 224.329 87.248 224.949 87.804 225.979 88.082 227.417 88.082 229.311 88.082 231.074 87.283 232.708 85.682 233.599 84.808 234.354 83.791 234.973 82.635 234.967 82.363 234.962 82.09 234.962 81.811 234.962 76.976 235.925 71.895 237.852 66.571 239.78 61.246 242.655 56.739 246.477 53.047 250.299 49.356 254.855 47.51 260.147 47.51 262.826 47.51 264.819 47.967 266.126 48.881 267.432 49.796 268.087 51.005 268.087 52.508 L268.087 53.194 269.165 48 283.276 48 276.219 81.321 C275.958 82.301 275.829 83.345 275.829 84.455 275.829 87.265 277.168 88.67 279.846 88.67 281.676 88.67 283.259 87.82 284.598 86.121 284.628 86.084 284.657 86.044 284.686 86.006 284.661 85.687 284.647 85.366 284.647 85.043 284.647 82.887 285.154 81.009 286.167 79.409 287.179 77.808 288.405 76.649 289.842 75.93 292.39 71.357 294.612 66.734 296.507 62.063 298.401 57.391 300.197 52.345 301.895 46.922 L316.399 44.961 C316.726 53.324 317.281 62.373 318.065 72.108 318.392 76.028 318.555 78.869 318.555 80.633 318.555 82.136 318.426 83.378 318.165 84.358 321.235 82.594 323.586 80.96 325.219 79.457 L331.1 51.92 327.866 51.92 328.649 48 331.883 48 334.825 34.477 349.329 32.516 345.997 48 351.876 48 351.092 51.92 345.212 51.92 338.94 81.321 C338.679 82.301 338.548 83.345 338.548 84.455 338.548 85.762 338.859 86.693 339.479 87.248 340.1 87.804 341.128 88.082 342.565 88.082 344.46 88.082 346.225 87.283 347.858 85.682 349.491 84.081 350.667 82.005 351.385 79.457 L358.049 48 372.163 48 365.106 81.321 C364.845 82.301 364.714 83.345 364.714 84.455 364.714 85.762 365.025 86.693 365.645 87.248 366.266 87.804 367.294 88.082 368.731 88.082 370.626 88.082 372.391 87.283 374.024 85.682 374.626 85.093 375.164 84.437 375.641 83.719 375.609 83.165 375.592 82.595 375.592 82.006 375.592 77.498 376.491 72.532 378.288 67.11 380.084 61.687 382.958 57 386.911 53.047 390.863 49.095 395.878 47.118 401.954 47.118 405.939 47.118 408.748 47.968 410.382 49.666 412.015 51.365 412.833 53.554 412.833 56.233 412.833 58.585 412.326 60.348 411.313 61.524 410.301 62.7 409.075 63.287 407.637 63.287 406.396 63.287 405.253 62.896 404.208 62.112 404.992 60.021 405.383 58.094 405.383 56.33 405.383 53.652 404.503 52.313 402.739 52.313 400.779 52.313 398.818 53.928 396.858 57.162 394.898 60.396 393.281 64.252 392.007 68.727 390.733 73.202 390.096 77.074 390.096 80.34 390.096 85.763 392.055 88.475 395.975 88.475 397.739 88.475 399.716 87.936 401.905 86.858 404.094 85.78 406.036 84.522 407.735 83.084 405.971 92.754 400.321 97.588 390.782 97.588 386.013 97.588 382.289 96.33 379.61 93.815 378.38 92.659 377.432 91.203 376.766 89.448 375.418 91.303 373.948 92.759 372.358 93.815 368.569 96.33 364.813 97.588 361.089 97.588 357.953 97.588 355.42 96.609 353.493 94.649 352.141 93.274 351.266 91.417 350.862 89.078 349.442 91.11 347.886 92.69 346.192 93.815 342.403 96.33 338.647 97.588 334.923 97.588 331.787 97.588 329.254 96.609 327.327 94.649 325.4 92.689 324.436 89.748 324.436 85.828 324.436 85.386 324.457 84.905 324.495 84.391 321.444 87.137 318.061 89.576 314.342 91.707 312.448 93.733 310.111 95.219 307.335 96.166 304.558 97.114 301.765 97.588 298.956 97.588 295.82 97.588 293.174 96.984 291.018 95.776 288.862 94.567 287.261 92.998 286.216 91.071 286.17 90.986 286.126 90.901 286.083 90.817 285.088 92.034 284.037 93.034 282.932 93.815 279.372 96.33 275.795 97.588 272.202 97.588 269.458 97.588 267.253 96.821 265.587 95.285 263.921 93.75 262.925 91.513 262.598 88.573 260.704 91.251 258.595 93.422 256.276 95.088 253.957 96.754 251.198 97.588 247.997 97.588 244.273 97.588 241.169 96.314 238.686 93.766 237.438 92.485 236.504 90.84 235.883 88.832 234.418 90.984 232.804 92.645 231.042 93.815 227.252 96.33 223.496 97.588 219.772 97.588 216.636 97.588 214.104 96.609 212.176 94.649 210.849 93.299 209.98 91.484 209.567 89.203 208.227 91.176 206.779 92.713 205.219 93.815 201.659 96.33 198.082 97.588 194.489 97.588 191.745 97.588 189.54 96.821 187.874 95.285 186.208 93.75 185.21 91.513 184.883 88.573 182.989 91.251 180.883 93.422 178.563 95.088 176.244 96.754 173.483 97.588 170.282 97.588 166.558 97.588 163.454 96.314 160.971 93.766 159.132 91.878 157.975 89.199 157.499 85.733 151.099 93.635 143.569 97.588 134.905 97.588 Z M295.819 89.846 C298.236 89.846 300.262 89.127 301.895 87.69 303.529 86.252 304.346 83.934 304.346 80.733 304.346 78.773 304.15 76.028 303.758 72.5 303.105 65.052 302.679 60.054 302.483 57.506 300.915 62.668 298.27 68.841 294.546 76.028 296.048 76.812 296.799 77.955 296.799 79.457 296.799 80.699 296.392 81.809 295.575 82.789 294.758 83.769 293.73 84.26 292.489 84.26 291.507 84.26 290.778 84.042 290.298 83.608 290.171 83.898 290.044 84.185 289.915 84.465 290.078 86.078 290.526 87.317 291.262 88.18 292.21 89.291 293.728 89.846 295.819 89.846 Z M176.651 88.082 C178.284 88.082 179.902 87.315 181.503 85.78 183.103 84.244 184.198 82.136 184.786 79.457 L189.491 57.311 C189.491 56.462 189.164 55.628 188.51 54.811 187.857 53.994 186.843 53.586 185.471 53.586 182.858 53.586 180.507 55.105 178.417 58.143 176.326 61.181 174.692 64.84 173.516 69.119 172.34 73.399 171.753 77.171 171.753 80.438 171.753 83.704 172.225 85.795 173.173 86.709 174.12 87.624 175.279 88.082 176.651 88.082 Z M254.366 88.082 C255.999 88.082 257.617 87.315 259.217 85.78 260.818 84.244 261.913 82.136 262.501 79.457 L267.204 57.311 C267.204 56.462 266.877 55.628 266.223 54.811 265.57 53.994 264.558 53.586 263.186 53.586 260.573 53.586 258.22 55.105 256.13 58.143 254.039 61.181 252.405 64.84 251.229 69.119 250.053 73.399 249.466 77.171 249.466 80.438 249.466 83.704 249.94 85.795 250.887 86.709 251.835 87.624 252.994 88.082 254.366 88.082 Z M367.753 42.707 C365.597 42.707 363.767 41.956 362.264 40.453 360.762 38.951 360.01 37.121 360.01 34.965 360.01 32.809 360.762 30.963 362.264 29.428 363.767 27.893 365.597 27.125 367.753 27.125 369.909 27.125 371.754 27.893 373.29 29.428 374.825 30.963 375.592 32.809 375.592 34.965 375.592 37.121 374.825 38.951 373.29 40.453 371.754 41.956 369.909 42.707 367.753 42.707 Z M89.04 98.764 C84.924 98.764 81.298 98.045 78.162 96.608 75.026 95.171 72.609 93.162 70.91 90.581 69.211 88 68.362 85.011 68.362 81.614 68.362 78.739 68.966 76.126 70.175 73.774 71.384 71.422 73.017 69.56 75.075 68.188 77.133 66.816 79.403 66.13 81.886 66.13 84.173 66.13 86.1 66.702 87.668 67.845 89.236 68.988 90.216 70.573 90.608 72.598 87.211 72.598 84.499 73.496 82.474 75.293 80.449 77.09 79.436 79.523 79.436 82.594 79.436 85.403 80.285 87.657 81.984 89.356 83.683 91.055 85.937 91.904 88.746 91.904 92.209 91.904 95.067 90.744 97.321 88.425 99.575 86.106 100.702 83.182 100.702 79.654 100.702 76.583 99.853 73.676 98.154 70.932 96.455 68.188 93.907 64.856 90.51 60.936 86.982 56.885 84.32 53.406 82.523 50.499 80.726 47.592 79.828 44.407 79.828 40.944 79.828 37.547 80.775 34.492 82.67 31.781 84.565 29.07 87.178 26.93 90.51 25.362 93.842 23.794 97.599 23.01 101.78 23.01 107.072 23.01 111.302 24.251 114.471 26.734 117.64 29.217 119.224 32.549 119.224 36.73 119.224 39.474 118.538 41.695 117.166 43.394 115.794 45.093 113.997 45.942 111.776 45.942 109.293 45.942 107.301 44.929 105.798 42.904 107.039 41.989 108.019 40.781 108.738 39.278 109.457 37.775 109.816 36.207 109.816 34.574 109.816 32.483 109.195 30.817 107.954 29.576 106.713 28.335 105.014 27.714 102.858 27.714 100.245 27.714 98.105 28.645 96.439 30.507 94.773 32.369 93.94 34.737 93.94 37.612 93.94 40.225 94.691 42.659 96.194 44.913 97.697 47.167 100.049 50.058 103.25 53.586 105.863 56.395 107.97 58.813 109.571 60.838 111.172 62.863 112.544 65.199 113.687 67.845 114.83 70.491 115.402 73.349 115.402 76.42 115.402 80.601 114.242 84.391 111.923 87.788 109.604 91.185 106.435 93.864 102.417 95.824 98.399 97.784 93.94 98.764 89.04 98.764 Z" fill="#515151" fill-opacity="1" stroke="none"/>
   <path id=":" d="M61.577 57.992 C59.421 57.992 57.592 57.241 56.089 55.738 54.586 54.235 53.835 52.406 53.835 50.25 53.835 48.094 54.586 46.248 56.089 44.713 57.592 43.178 59.421 42.41 61.577 42.41 63.733 42.41 65.579 43.178 67.114 44.713 68.649 46.248 69.417 48.094 69.417 50.25 69.417 52.406 68.649 54.235 67.114 55.738 65.579 57.241 63.733 57.992 61.577 57.992 Z M56.677 81.512 C54.521 81.512 52.692 80.761 51.189 79.258 49.686 77.755 48.935 75.926 48.935 73.77 48.935 71.614 49.686 69.768 51.189 68.233 52.692 66.698 54.521 65.93 56.677 65.93 58.833 65.93 60.679 66.698 62.214 68.233 63.749 69.768 64.517 71.614 64.517 73.77 64.517 75.926 63.749 77.755 62.214 79.258 60.679 80.761 58.833 81.512 56.677 81.512 Z" fill="#515151" fill-opacity="1" stroke="none"/>
  </g>
  <path id="Rectangle-arrondi" d="M57 10 C30.491 10 9 31.491 9 58 L9 64 C9 90.509 30.491 112 57 112 L397 112 C423.509 112 445 90.509 445 64 L445 58 C445 31.491 423.509 10 397 10 Z" fill="none" stroke="#515151" stroke-width="7" stroke-opacity="1" stroke-linejoin="round" stroke-linecap="round"/>
 </g>
</svg>
